STARTFONT 2.1
COMMENT
COMMENT GENERATED BY "snftobdf 1.4"
COMMENT AUTHOR mleisher@nmsu.edu (Mark Leisher)
COMMENT DATE Tue Nov 11 13:06:00 2014
COMMENT
FONT -IBM-Ergonomic-Bold-R-Normal--20-140-100-100-C-120-ISO8859-9
SIZE 14 100 100
FONTBOUNDINGBOX 12 20 0 -4
STARTPROPERTIES 24
FONTNAME_REGISTRY ""
FOUNDRY "IBM"
FAMILY_NAME "Ergonomic"
WEIGHT_NAME "Bold"
SLANT "R"
SETWIDTH_NAME "Normal"
ADD_STYLE_NAME ""
PIXEL_SIZE 20
POINT_SIZE 140
RESOLUTION_X 100
RESOLUTION_Y 100
SPACING "C"
AVERAGE_WIDTH 120
CHARSET_REGISTRY "ISO8859"
CHARSET_ENCODING "9"
CAP_HEIGHT 20
COPYRIGHT "(C) COPYRIGHT International Business Machines Corp. 1989"
WEIGHT 220
RESOLUTION 138
X_HEIGHT 16
QUAD_WIDTH 12
DEFAULT_CHAR 0
FONT_ASCENT 16
FONT_DESCENT 4
ENDPROPERTIES
CHARS 191
STARTCHAR C000
ENCODING 0
SWIDTH 619 0
DWIDTH 12 0
BBX 12 20 0 -4
BITMAP
0000
0000
0000
0000
0000
0000
0000
0000
0000
0000
0000
0000
0000
0000
0000
0000
0000
0000
0000
0000
ENDCHAR
STARTCHAR C040
ENCODING 32
SWIDTH 619 0
DWIDTH 12 0
BBX 12 20 0 -4
BITMAP
0000
0000
0000
0000
0000
0000
0000
0000
0000
0000
0000
0000
0000
0000
0000
0000
0000
0000
0000
0000
ENDCHAR
STARTCHAR C041
ENCODING 33
SWIDTH 619 0
DWIDTH 12 0
BBX 12 20 0 -4
BITMAP
0000
0000
0000
0700
0700
0700
0700
0700
0700
0700
0700
0700
0000
0700
0700
0700
0000
0000
0000
0000
ENDCHAR
STARTCHAR C042
ENCODING 34
SWIDTH 619 0
DWIDTH 12 0
BBX 12 20 0 -4
BITMAP
0000
0000
39c0
39c0
39c0
39c0
0000
0000
0000
0000
0000
0000
0000
0000
0000
0000
0000
0000
0000
0000
ENDCHAR
STARTCHAR C043
ENCODING 35
SWIDTH 619 0
DWIDTH 12 0
BBX 12 20 0 -4
BITMAP
0000
0000
0000
0000
18c0
18c0
3fe0
3fe0
18c0
18c0
18c0
18c0
3fe0
3fe0
18c0
18c0
0000
0000
0000
0000
ENDCHAR
STARTCHAR C044
ENCODING 36
SWIDTH 619 0
DWIDTH 12 0
BBX 12 20 0 -4
BITMAP
0000
0000
0000
0300
0300
0f80
1fc0
38e0
3800
1c00
0f80
03c0
00e0
38e0
1dc0
0f80
0600
0600
0000
0000
ENDCHAR
STARTCHAR C045
ENCODING 37
SWIDTH 619 0
DWIDTH 12 0
BBX 12 20 0 -4
BITMAP
0000
0000
1e00
3b00
3320
3760
1ee0
01c0
0380
0700
0e00
1c00
3bc0
3760
2660
06e0
03c0
0000
0000
0000
ENDCHAR
STARTCHAR C046
ENCODING 38
SWIDTH 619 0
DWIDTH 12 0
BBX 12 20 0 -4
BITMAP
0000
0000
0000
0000
0e00
1b00
3b80
3b80
1b00
0e00
3b20
73e0
71c0
71c0
73e0
3f20
0000
0000
0000
0000
ENDCHAR
STARTCHAR C047
ENCODING 39
SWIDTH 619 0
DWIDTH 12 0
BBX 12 20 0 -4
BITMAP
0000
0000
0700
0700
0700
0700
0000
0000
0000
0000
0000
0000
0000
0000
0000
0000
0000
0000
0000
0000
ENDCHAR
STARTCHAR C050
ENCODING 40
SWIDTH 619 0
DWIDTH 12 0
BBX 12 20 0 -4
BITMAP
0000
0000
0380
0700
0e00
0e00
1c00
1c00
1c00
1c00
1c00
1c00
1c00
1c00
0e00
0e00
0700
0380
0000
0000
ENDCHAR
STARTCHAR C051
ENCODING 41
SWIDTH 619 0
DWIDTH 12 0
BBX 12 20 0 -4
BITMAP
0000
0000
1c00
0e00
0700
0700
0380
0380
0380
0380
0380
0380
0380
0380
0700
0700
0e00
1c00
0000
0000
ENDCHAR
STARTCHAR C052
ENCODING 42
SWIDTH 619 0
DWIDTH 12 0
BBX 12 20 0 -4
BITMAP
0000
0000
0000
0000
0000
39c0
39c0
39c0
0f00
7fe0
7fe0
0f00
39c0
39c0
39c0
0000
0000
0000
0000
0000
ENDCHAR
STARTCHAR C053
ENCODING 43
SWIDTH 619 0
DWIDTH 12 0
BBX 12 20 0 -4
BITMAP
0000
0000
0000
0000
0000
0000
0600
0600
0600
3fc0
3fc0
0600
0600
0600
0000
0000
0000
0000
0000
0000
ENDCHAR
STARTCHAR C054
ENCODING 44
SWIDTH 619 0
DWIDTH 12 0
BBX 12 20 0 -4
BITMAP
0000
0000
0000
0000
0000
0000
0000
0000
0000
0000
0000
0000
0000
0700
0700
0700
0300
0600
0400
0000
ENDCHAR
STARTCHAR C055
ENCODING 45
SWIDTH 619 0
DWIDTH 12 0
BBX 12 20 0 -4
BITMAP
0000
0000
0000
0000
0000
0000
0000
0000
0000
0000
3fc0
3fc0
0000
0000
0000
0000
0000
0000
0000
0000
ENDCHAR
STARTCHAR C056
ENCODING 46
SWIDTH 619 0
DWIDTH 12 0
BBX 12 20 0 -4
BITMAP
0000
0000
0000
0000
0000
0000
0000
0000
0000
0000
0000
0000
0000
0700
0700
0700
0000
0000
0000
0000
ENDCHAR
STARTCHAR C057
ENCODING 47
SWIDTH 619 0
DWIDTH 12 0
BBX 12 20 0 -4
BITMAP
0000
0000
0000
0000
0020
0060
00e0
01c0
0380
0700
0e00
1c00
3800
7000
6000
4000
0000
0000
0000
0000
ENDCHAR
STARTCHAR C060
ENCODING 48
SWIDTH 619 0
DWIDTH 12 0
BBX 12 20 0 -4
BITMAP
0000
0000
0000
0000
0f80
1fc0
38e0
3060
3060
3260
3260
3060
3060
38e0
1fc0
0f80
0000
0000
0000
0000
ENDCHAR
STARTCHAR C061
ENCODING 49
SWIDTH 619 0
DWIDTH 12 0
BBX 12 20 0 -4
BITMAP
0000
0000
0000
0000
0300
0700
0f00
0f00
0300
0300
0300
0300
0300
0300
0fc0
0fc0
0000
0000
0000
0000
ENDCHAR
STARTCHAR C062
ENCODING 50
SWIDTH 619 0
DWIDTH 12 0
BBX 12 20 0 -4
BITMAP
0000
0000
0000
0000
0f80
1fc0
38e0
0060
00e0
01c0
0380
0700
0e00
1c00
3fe0
3fe0
0000
0000
0000
0000
ENDCHAR
STARTCHAR C063
ENCODING 51
SWIDTH 619 0
DWIDTH 12 0
BBX 12 20 0 -4
BITMAP
0000
0000
0000
0000
0f80
1fc0
38e0
0060
00c0
0780
07c0
00e0
0060
38e0
1fc0
0f80
0000
0000
0000
0000
ENDCHAR
STARTCHAR C064
ENCODING 52
SWIDTH 619 0
DWIDTH 12 0
BBX 12 20 0 -4
BITMAP
0000
0000
0000
0000
00c0
01c0
03c0
07c0
0ec0
1cc0
38c0
30c0
3fe0
3fe0
00c0
00c0
0000
0000
0000
0000
ENDCHAR
STARTCHAR C065
ENCODING 53
SWIDTH 619 0
DWIDTH 12 0
BBX 12 20 0 -4
BITMAP
0000
0000
0000
0000
3fc0
3fc0
3000
3000
3780
3fc0
38e0
0060
0060
38e0
1fc0
0f80
0000
0000
0000
0000
ENDCHAR
STARTCHAR C066
ENCODING 54
SWIDTH 619 0
DWIDTH 12 0
BBX 12 20 0 -4
BITMAP
0000
0000
0000
0000
0f80
1fc0
3860
3000
3780
3fc0
38e0
3060
3060
38e0
1fc0
0f80
0000
0000
0000
0000
ENDCHAR
STARTCHAR C067
ENCODING 55
SWIDTH 619 0
DWIDTH 12 0
BBX 12 20 0 -4
BITMAP
0000
0000
0000
0000
3fe0
3fe0
00c0
01c0
0180
0380
0300
0300
0700
0600
0600
0600
0000
0000
0000
0000
ENDCHAR
STARTCHAR C070
ENCODING 56
SWIDTH 619 0
DWIDTH 12 0
BBX 12 20 0 -4
BITMAP
0000
0000
0000
0000
0f80
1fc0
38e0
3060
1dc0
0f80
1dc0
3060
3060
38e0
1fc0
0f80
0000
0000
0000
0000
ENDCHAR
STARTCHAR C071
ENCODING 57
SWIDTH 619 0
DWIDTH 12 0
BBX 12 20 0 -4
BITMAP
0000
0000
0000
0000
0f80
1fc0
38e0
3060
3060
38e0
1fe0
0f60
0060
38e0
1fc0
0f80
0000
0000
0000
0000
ENDCHAR
STARTCHAR C072
ENCODING 58
SWIDTH 619 0
DWIDTH 12 0
BBX 12 20 0 -4
BITMAP
0000
0000
0000
0000
0000
0000
0000
0e00
0e00
0e00
0000
0000
0000
0e00
0e00
0e00
0000
0000
0000
0000
ENDCHAR
STARTCHAR C073
ENCODING 59
SWIDTH 619 0
DWIDTH 12 0
BBX 12 20 0 -4
BITMAP
0000
0000
0000
0000
0000
0000
0000
0e00
0e00
0e00
0000
0000
0000
0e00
0e00
0e00
0600
0c00
0800
0000
ENDCHAR
STARTCHAR C074
ENCODING 60
SWIDTH 619 0
DWIDTH 12 0
BBX 12 20 0 -4
BITMAP
0000
0000
0000
0000
01c0
0380
0700
0e00
1c00
3800
3800
1c00
0e00
0700
0380
01c0
0000
0000
0000
0000
ENDCHAR
STARTCHAR C075
ENCODING 61
SWIDTH 619 0
DWIDTH 12 0
BBX 12 20 0 -4
BITMAP
0000
0000
0000
0000
0000
0000
0000
0000
3fc0
3fc0
0000
3fc0
3fc0
0000
0000
0000
0000
0000
0000
0000
ENDCHAR
STARTCHAR C076
ENCODING 62
SWIDTH 619 0
DWIDTH 12 0
BBX 12 20 0 -4
BITMAP
0000
0000
0000
0000
1c00
0e00
0700
0380
01c0
00e0
00e0
01c0
0380
0700
0e00
1c00
0000
0000
0000
0000
ENDCHAR
STARTCHAR C077
ENCODING 63
SWIDTH 619 0
DWIDTH 12 0
BBX 12 20 0 -4
BITMAP
0000
0000
0000
0f80
1fc0
38e0
3060
00e0
01c0
0380
0700
0700
0000
0700
0700
0700
0000
0000
0000
0000
ENDCHAR
STARTCHAR C100
ENCODING 64
SWIDTH 619 0
DWIDTH 12 0
BBX 12 20 0 -4
BITMAP
0000
0000
0000
1f80
3fc0
30e0
6060
63e0
67e0
6660
6660
67e0
63c0
7000
3fc0
1fc0
0000
0000
0000
0000
ENDCHAR
STARTCHAR C101
ENCODING 65
SWIDTH 619 0
DWIDTH 12 0
BBX 12 20 0 -4
BITMAP
0000
0000
0000
0000
0700
0f80
1dc0
38e0
3060
3060
3fe0
3fe0
3060
3060
3060
3060
0000
0000
0000
0000
ENDCHAR
STARTCHAR C102
ENCODING 66
SWIDTH 619 0
DWIDTH 12 0
BBX 12 20 0 -4
BITMAP
0000
0000
0000
0000
3f80
3fc0
30e0
3060
30c0
3f80
3fc0
30e0
3060
30e0
3fc0
3f80
0000
0000
0000
0000
ENDCHAR
STARTCHAR C103
ENCODING 67
SWIDTH 619 0
DWIDTH 12 0
BBX 12 20 0 -4
BITMAP
0000
0000
0000
0000
0f80
1fc0
38e0
3000
3000
3000
3000
3000
3000
38e0
1fc0
0f80
0000
0000
0000
0000
ENDCHAR
STARTCHAR C104
ENCODING 68
SWIDTH 619 0
DWIDTH 12 0
BBX 12 20 0 -4
BITMAP
0000
0000
0000
0000
3f80
3fc0
30e0
3060
3060
3060
3060
3060
3060
30e0
3fc0
3f80
0000
0000
0000
0000
ENDCHAR
STARTCHAR C105
ENCODING 69
SWIDTH 619 0
DWIDTH 12 0
BBX 12 20 0 -4
BITMAP
0000
0000
0000
0000
3fe0
3fe0
3000
3000
3000
3fc0
3fc0
3000
3000
3000
3fe0
3fe0
0000
0000
0000
0000
ENDCHAR
STARTCHAR C106
ENCODING 70
SWIDTH 619 0
DWIDTH 12 0
BBX 12 20 0 -4
BITMAP
0000
0000
0000
0000
3fe0
3fe0
3000
3000
3000
3fc0
3fc0
3000
3000
3000
3000
3000
0000
0000
0000
0000
ENDCHAR
STARTCHAR C107
ENCODING 71
SWIDTH 619 0
DWIDTH 12 0
BBX 12 20 0 -4
BITMAP
0000
0000
0000
0000
0f80
1fc0
38e0
3000
3000
31e0
31e0
3060
3060
38e0
1fe0
0f60
0000
0000
0000
0000
ENDCHAR
STARTCHAR C110
ENCODING 72
SWIDTH 619 0
DWIDTH 12 0
BBX 12 20 0 -4
BITMAP
0000
0000
0000
0000
3060
3060
3060
3060
3060
3fe0
3fe0
3060
3060
3060
3060
3060
0000
0000
0000
0000
ENDCHAR
STARTCHAR C111
ENCODING 73
SWIDTH 619 0
DWIDTH 12 0
BBX 12 20 0 -4
BITMAP
0000
0000
0000
0000
1f80
1f80
0600
0600
0600
0600
0600
0600
0600
0600
1f80
1f80
0000
0000
0000
0000
ENDCHAR
STARTCHAR C112
ENCODING 74
SWIDTH 619 0
DWIDTH 12 0
BBX 12 20 0 -4
BITMAP
0000
0000
0000
0000
07e0
07e0
00c0
00c0
00c0
00c0
00c0
00c0
00c0
39c0
1f80
0f00
0000
0000
0000
0000
ENDCHAR
STARTCHAR C113
ENCODING 75
SWIDTH 619 0
DWIDTH 12 0
BBX 12 20 0 -4
BITMAP
0000
0000
0000
0000
30e0
31c0
3380
3700
3e00
3c00
3e00
3700
3380
31c0
30e0
3060
0000
0000
0000
0000
ENDCHAR
STARTCHAR C114
ENCODING 76
SWIDTH 619 0
DWIDTH 12 0
BBX 12 20 0 -4
BITMAP
0000
0000
0000
0000
1800
1800
1800
1800
1800
1800
1800
1800
1800
1800
1fe0
1fe0
0000
0000
0000
0000
ENDCHAR
STARTCHAR C115
ENCODING 77
SWIDTH 619 0
DWIDTH 12 0
BBX 12 20 0 -4
BITMAP
0000
0000
0000
0000
4020
6060
70e0
79e0
7fe0
6f60
6660
6660
6060
6060
6060
6060
0000
0000
0000
0000
ENDCHAR
STARTCHAR C116
ENCODING 78
SWIDTH 619 0
DWIDTH 12 0
BBX 12 20 0 -4
BITMAP
0000
0000
0000
0000
3060
3860
3c60
3c60
3660
3760
3360
31e0
31e0
30e0
3060
3060
0000
0000
0000
0000
ENDCHAR
STARTCHAR C117
ENCODING 79
SWIDTH 619 0
DWIDTH 12 0
BBX 12 20 0 -4
BITMAP
0000
0000
0000
0000
0f80
1fc0
38e0
3060
3060
3060
3060
3060
3060
38e0
1fc0
0f80
0000
0000
0000
0000
ENDCHAR
STARTCHAR C120
ENCODING 80
SWIDTH 619 0
DWIDTH 12 0
BBX 12 20 0 -4
BITMAP
0000
0000
0000
0000
3f80
3fc0
30e0
3060
3060
30e0
3fc0
3f80
3000
3000
3000
3000
0000
0000
0000
0000
ENDCHAR
STARTCHAR C121
ENCODING 81
SWIDTH 619 0
DWIDTH 12 0
BBX 12 20 0 -4
BITMAP
0000
0000
0000
0000
0f80
1fc0
38e0
3060
3060
3060
3060
3060
3060
38e0
1fc0
0f80
01c0
00c0
0000
0000
ENDCHAR
STARTCHAR C122
ENCODING 82
SWIDTH 619 0
DWIDTH 12 0
BBX 12 20 0 -4
BITMAP
0000
0000
0000
0000
3f80
3fc0
30e0
3060
3060
30e0
3fc0
3f80
31c0
30c0
30e0
3060
0000
0000
0000
0000
ENDCHAR
STARTCHAR C123
ENCODING 83
SWIDTH 619 0
DWIDTH 12 0
BBX 12 20 0 -4
BITMAP
0000
0000
0000
0000
0f80
1fc0
38e0
3000
3800
1f00
07c0
00e0
0060
38e0
1fc0
0f80
0000
0000
0000
0000
ENDCHAR
STARTCHAR C124
ENCODING 84
SWIDTH 619 0
DWIDTH 12 0
BBX 12 20 0 -4
BITMAP
0000
0000
0000
0000
7fe0
7fe0
0600
0600
0600
0600
0600
0600
0600
0600
0600
0600
0000
0000
0000
0000
ENDCHAR
STARTCHAR C125
ENCODING 85
SWIDTH 619 0
DWIDTH 12 0
BBX 12 20 0 -4
BITMAP
0000
0000
0000
0000
3060
3060
3060
3060
3060
3060
3060
3060
3060
38e0
1fc0
0f80
0000
0000
0000
0000
ENDCHAR
STARTCHAR C126
ENCODING 86
SWIDTH 619 0
DWIDTH 12 0
BBX 12 20 0 -4
BITMAP
0000
0000
0000
0000
6030
6030
7070
3060
3060
38e0
18c0
18c0
1dc0
0d80
0f80
0700
0000
0000
0000
0000
ENDCHAR
STARTCHAR C127
ENCODING 87
SWIDTH 619 0
DWIDTH 12 0
BBX 12 20 0 -4
BITMAP
0000
0000
0000
0000
6060
6060
6060
6060
6060
6660
6660
6f60
6f60
79e0
39c0
30c0
0000
0000
0000
0000
ENDCHAR
STARTCHAR C130
ENCODING 88
SWIDTH 619 0
DWIDTH 12 0
BBX 12 20 0 -4
BITMAP
0000
0000
0000
0000
3060
38e0
18c0
1dc0
0f80
0700
0700
0f80
1dc0
18c0
38e0
3060
0000
0000
0000
0000
ENDCHAR
STARTCHAR C131
ENCODING 89
SWIDTH 619 0
DWIDTH 12 0
BBX 12 20 0 -4
BITMAP
0000
0000
0000
0000
6060
70e0
30c0
39c0
1f80
0f00
0600
0600
0600
0600
0600
0600
0000
0000
0000
0000
ENDCHAR
STARTCHAR C132
ENCODING 90
SWIDTH 619 0
DWIDTH 12 0
BBX 12 20 0 -4
BITMAP
0000
0000
0000
0000
3fe0
3fe0
0060
00e0
01c0
0380
0700
0e00
1c00
3800
3fe0
3fe0
0000
0000
0000
0000
ENDCHAR
STARTCHAR C133
ENCODING 91
SWIDTH 619 0
DWIDTH 12 0
BBX 12 20 0 -4
BITMAP
0000
0000
0000
1f00
1f00
1800
1800
1800
1800
1800
1800
1800
1800
1800
1800
1800
1f00
1f00
0000
0000
ENDCHAR
STARTCHAR C134
ENCODING 92
SWIDTH 619 0
DWIDTH 12 0
BBX 12 20 0 -4
BITMAP
0000
0000
0000
0000
4000
6000
7000
3800
1c00
0e00
0700
0380
01c0
00e0
0060
0020
0000
0000
0000
0000
ENDCHAR
STARTCHAR C135
ENCODING 93
SWIDTH 619 0
DWIDTH 12 0
BBX 12 20 0 -4
BITMAP
0000
0000
0000
0f00
0f00
0300
0300
0300
0300
0300
0300
0300
0300
0300
0300
0300
0f00
0f00
0000
0000
ENDCHAR
STARTCHAR C136
ENCODING 94
SWIDTH 619 0
DWIDTH 12 0
BBX 12 20 0 -4
BITMAP
0000
0700
0f80
1dc0
38e0
0000
0000
0000
0000
0000
0000
0000
0000
0000
0000
0000
0000
0000
0000
0000
ENDCHAR
STARTCHAR C137
ENCODING 95
SWIDTH 619 0
DWIDTH 12 0
BBX 12 20 0 -4
BITMAP
0000
0000
0000
0000
0000
0000
0000
0000
0000
0000
0000
0000
0000
0000
0000
0000
0000
fff0
0000
0000
ENDCHAR
STARTCHAR C140
ENCODING 96
SWIDTH 619 0
DWIDTH 12 0
BBX 12 20 0 -4
BITMAP
0000
1c00
0e00
0700
0380
0000
0000
0000
0000
0000
0000
0000
0000
0000
0000
0000
0000
0000
0000
0000
ENDCHAR
STARTCHAR C141
ENCODING 97
SWIDTH 619 0
DWIDTH 12 0
BBX 12 20 0 -4
BITMAP
0000
0000
0000
0000
0000
0000
0f80
0fc0
0060
0fe0
1fe0
3860
3060
38e0
1fe0
0f60
0000
0000
0000
0000
ENDCHAR
STARTCHAR C142
ENCODING 98
SWIDTH 619 0
DWIDTH 12 0
BBX 12 20 0 -4
BITMAP
0000
0000
0000
3000
3000
3000
3780
3fc0
38e0
3060
3060
3060
3060
38e0
3fc0
3780
0000
0000
0000
0000
ENDCHAR
STARTCHAR C143
ENCODING 99
SWIDTH 619 0
DWIDTH 12 0
BBX 12 20 0 -4
BITMAP
0000
0000
0000
0000
0000
0000
0f80
1fc0
38e0
3000
3000
3000
3000
38e0
1fc0
0f80
0000
0000
0000
0000
ENDCHAR
STARTCHAR C144
ENCODING 100
SWIDTH 619 0
DWIDTH 12 0
BBX 12 20 0 -4
BITMAP
0000
0000
0000
0060
0060
0060
0f60
1fe0
38e0
3060
3060
3060
3060
38e0
1fe0
0f60
0000
0000
0000
0000
ENDCHAR
STARTCHAR C145
ENCODING 101
SWIDTH 619 0
DWIDTH 12 0
BBX 12 20 0 -4
BITMAP
0000
0000
0000
0000
0000
0000
0f80
1fc0
38e0
3060
3fe0
3fe0
3000
3800
1fe0
0fc0
0000
0000
0000
0000
ENDCHAR
STARTCHAR C146
ENCODING 102
SWIDTH 619 0
DWIDTH 12 0
BBX 12 20 0 -4
BITMAP
0000
0000
0000
07c0
0fc0
0c00
0c00
3f80
3f80
0c00
0c00
0c00
0c00
0c00
0c00
0c00
0000
0000
0000
0000
ENDCHAR
STARTCHAR C147
ENCODING 103
SWIDTH 619 0
DWIDTH 12 0
BBX 12 20 0 -4
BITMAP
0000
0000
0000
0000
0000
0000
0f60
1fe0
38e0
3060
3060
3060
3060
38e0
1fe0
0f60
0060
1fc0
1f80
0000
ENDCHAR
STARTCHAR C150
ENCODING 104
SWIDTH 619 0
DWIDTH 12 0
BBX 12 20 0 -4
BITMAP
0000
0000
0000
3000
3000
3000
3780
3fc0
38e0
3060
3060
3060
3060
3060
3060
3060
0000
0000
0000
0000
ENDCHAR
STARTCHAR C151
ENCODING 105
SWIDTH 619 0
DWIDTH 12 0
BBX 12 20 0 -4
BITMAP
0000
0000
0700
0700
0000
0000
0f00
0f00
0300
0300
0300
0300
0300
0300
0fc0
0fc0
0000
0000
0000
0000
ENDCHAR
STARTCHAR C152
ENCODING 106
SWIDTH 619 0
DWIDTH 12 0
BBX 12 20 0 -4
BITMAP
0000
0000
0700
0700
0000
0000
0f00
0f00
0300
0300
0300
0300
0300
0300
0300
0300
0700
1e00
1c00
0000
ENDCHAR
STARTCHAR C153
ENCODING 107
SWIDTH 619 0
DWIDTH 12 0
BBX 12 20 0 -4
BITMAP
0000
0000
0000
3000
3000
3000
3040
30c0
31c0
3380
3f00
3e00
3700
3380
31c0
30e0
0000
0000
0000
0000
ENDCHAR
STARTCHAR C154
ENCODING 108
SWIDTH 619 0
DWIDTH 12 0
BBX 12 20 0 -4
BITMAP
0000
0000
0000
1e00
1e00
0600
0600
0600
0600
0600
0600
0600
0600
0600
07c0
03c0
0000
0000
0000
0000
ENDCHAR
STARTCHAR C155
ENCODING 109
SWIDTH 619 0
DWIDTH 12 0
BBX 12 20 0 -4
BITMAP
0000
0000
0000
0000
0000
0000
6ec0
7fe0
7760
6660
6660
6660
6660
6660
6660
6660
0000
0000
0000
0000
ENDCHAR
STARTCHAR C156
ENCODING 110
SWIDTH 619 0
DWIDTH 12 0
BBX 12 20 0 -4
BITMAP
0000
0000
0000
0000
0000
0000
3780
3fc0
38e0
3060
3060
3060
3060
3060
3060
3060
0000
0000
0000
0000
ENDCHAR
STARTCHAR C157
ENCODING 111
SWIDTH 619 0
DWIDTH 12 0
BBX 12 20 0 -4
BITMAP
0000
0000
0000
0000
0000
0000
0f80
1fc0
38e0
3060
3060
3060
3060
38e0
1fc0
0f80
0000
0000
0000
0000
ENDCHAR
STARTCHAR C160
ENCODING 112
SWIDTH 619 0
DWIDTH 12 0
BBX 12 20 0 -4
BITMAP
0000
0000
0000
0000
0000
0000
3780
3fc0
38e0
3060
3060
3060
3060
38e0
3fc0
3780
3000
3000
3000
0000
ENDCHAR
STARTCHAR C161
ENCODING 113
SWIDTH 619 0
DWIDTH 12 0
BBX 12 20 0 -4
BITMAP
0000
0000
0000
0000
0000
0000
0f60
1fe0
38e0
3060
3060
3060
3060
38e0
1fe0
0f60
0060
0060
0060
0000
ENDCHAR
STARTCHAR C162
ENCODING 114
SWIDTH 619 0
DWIDTH 12 0
BBX 12 20 0 -4
BITMAP
0000
0000
0000
0000
0000
0000
1bc0
1fe0
1c60
1800
1800
1800
1800
1800
1800
1800
0000
0000
0000
0000
ENDCHAR
STARTCHAR C163
ENCODING 115
SWIDTH 619 0
DWIDTH 12 0
BBX 12 20 0 -4
BITMAP
0000
0000
0000
0000
0000
0000
1fc0
3fe0
3060
3000
3fc0
1fe0
0060
3060
3fe0
1fc0
0000
0000
0000
0000
ENDCHAR
STARTCHAR C164
ENCODING 116
SWIDTH 619 0
DWIDTH 12 0
BBX 12 20 0 -4
BITMAP
0000
0000
0000
0600
0600
0600
1fc0
1fc0
0600
0600
0600
0600
0600
0600
07c0
03c0
0000
0000
0000
0000
ENDCHAR
STARTCHAR C165
ENCODING 117
SWIDTH 619 0
DWIDTH 12 0
BBX 12 20 0 -4
BITMAP
0000
0000
0000
0000
0000
0000
3060
3060
3060
3060
3060
3060
3060
38e0
1fe0
0f60
0000
0000
0000
0000
ENDCHAR
STARTCHAR C166
ENCODING 118
SWIDTH 619 0
DWIDTH 12 0
BBX 12 20 0 -4
BITMAP
0000
0000
0000
0000
0000
0000
3060
3060
3060
38e0
18c0
18c0
1dc0
0d80
0f80
0700
0000
0000
0000
0000
ENDCHAR
STARTCHAR C167
ENCODING 119
SWIDTH 619 0
DWIDTH 12 0
BBX 12 20 0 -4
BITMAP
0000
0000
0000
0000
0000
0000
6060
6060
6060
6060
6660
6660
6f60
6f60
39c0
39c0
0000
0000
0000
0000
ENDCHAR
STARTCHAR C170
ENCODING 120
SWIDTH 619 0
DWIDTH 12 0
BBX 12 20 0 -4
BITMAP
0000
0000
0000
0000
0000
0000
3060
3060
38e0
1dc0
0f80
0f80
1dc0
38e0
3060
3060
0000
0000
0000
0000
ENDCHAR
STARTCHAR C171
ENCODING 121
SWIDTH 619 0
DWIDTH 12 0
BBX 12 20 0 -4
BITMAP
0000
0000
0000
0000
0000
0000
3060
3060
3060
3060
3060
3060
3060
38e0
1fe0
0f60
0060
1fc0
1f80
0000
ENDCHAR
STARTCHAR C172
ENCODING 122
SWIDTH 619 0
DWIDTH 12 0
BBX 12 20 0 -4
BITMAP
0000
0000
0000
0000
0000
0000
3fe0
3fe0
00e0
01c0
0380
0700
0e00
1c00
3fe0
3fe0
0000
0000
0000
0000
ENDCHAR
STARTCHAR C173
ENCODING 123
SWIDTH 619 0
DWIDTH 12 0
BBX 12 20 0 -4
BITMAP
0000
0000
03c0
07c0
0600
0600
0600
0600
0e00
3c00
0e00
0600
0600
0600
0600
0600
07c0
03c0
0000
0000
ENDCHAR
STARTCHAR C174
ENCODING 124
SWIDTH 619 0
DWIDTH 12 0
BBX 12 20 0 -4
BITMAP
0000
0700
0700
0700
0700
0700
0700
0700
0700
0700
0700
0700
0700
0700
0700
0700
0700
0700
0700
0000
ENDCHAR
STARTCHAR C175
ENCODING 125
SWIDTH 619 0
DWIDTH 12 0
BBX 12 20 0 -4
BITMAP
0000
0000
3c00
3e00
0600
0600
0600
0600
0700
03c0
0700
0600
0600
0600
0600
0600
3e00
3c00
0000
0000
ENDCHAR
STARTCHAR C176
ENCODING 126
SWIDTH 619 0
DWIDTH 12 0
BBX 12 20 0 -4
BITMAP
0000
1c60
3e60
67c0
6380
0000
0000
0000
0000
0000
0000
0000
0000
0000
0000
0000
0000
0000
0000
0000
ENDCHAR
STARTCHAR C241
ENCODING 161
SWIDTH 619 0
DWIDTH 12 0
BBX 12 20 0 -4
BITMAP
0000
0000
0000
0000
0700
0700
0700
0000
0700
0700
0700
0700
0700
0700
0700
0700
0000
0000
0000
0000
ENDCHAR
STARTCHAR C242
ENCODING 162
SWIDTH 619 0
DWIDTH 12 0
BBX 12 20 0 -4
BITMAP
0000
0000
0000
0000
0300
0300
0f80
1fc0
38e0
3000
3000
3000
3000
38e0
1fc0
0f80
0600
0600
0000
0000
ENDCHAR
STARTCHAR C243
ENCODING 163
SWIDTH 619 0
DWIDTH 12 0
BBX 12 20 0 -4
BITMAP
0000
0000
0000
0000
0780
0fc0
1cc0
1800
1800
3f00
3f00
1800
1800
1e60
3fe0
33c0
0000
0000
0000
0000
ENDCHAR
STARTCHAR C244
ENCODING 164
SWIDTH 619 0
DWIDTH 12 0
BBX 12 20 0 -4
BITMAP
0000
0000
0000
0000
3060
3060
1fc0
0f80
1dc0
18c0
18c0
1dc0
0f80
1fc0
3060
3060
0000
0000
0000
0000
ENDCHAR
STARTCHAR C245
ENCODING 165
SWIDTH 619 0
DWIDTH 12 0
BBX 12 20 0 -4
BITMAP
0000
0000
0000
0000
70e0
70e0
39c0
1f80
0f00
0600
3fc0
3fc0
0600
3fc0
3fc0
0600
0000
0000
0000
0000
ENDCHAR
STARTCHAR C246
ENCODING 166
SWIDTH 619 0
DWIDTH 12 0
BBX 12 20 0 -4
BITMAP
0000
0700
0700
0700
0700
0700
0700
0700
0700
0000
0000
0700
0700
0700
0700
0700
0700
0700
0700
0000
ENDCHAR
STARTCHAR C247
ENCODING 167
SWIDTH 619 0
DWIDTH 12 0
BBX 12 20 0 -4
BITMAP
0000
0000
0000
1f00
3f80
3180
1800
1e00
3700
3380
3980
1d80
0f00
0300
0180
3180
3f80
1f00
0000
0000
ENDCHAR
STARTCHAR C250
ENCODING 168
SWIDTH 619 0
DWIDTH 12 0
BBX 12 20 0 -4
BITMAP
0000
0000
39c0
39c0
0000
0000
0000
0000
0000
0000
0000
0000
0000
0000
0000
0000
0000
0000
0000
0000
ENDCHAR
STARTCHAR C251
ENCODING 169
SWIDTH 619 0
DWIDTH 12 0
BBX 12 20 0 -4
BITMAP
0000
0000
0000
1fc0
3060
6730
6db0
6c30
6c30
6db0
6730
3060
1fc0
0000
0000
0000
0000
0000
0000
0000
ENDCHAR
STARTCHAR C252
ENCODING 170
SWIDTH 619 0
DWIDTH 12 0
BBX 12 20 0 -4
BITMAP
0000
0f80
0fc0
00c0
0fc0
1fc0
18c0
1fc0
0fc0
0000
1fc0
1fc0
0000
0000
0000
0000
0000
0000
0000
0000
ENDCHAR
STARTCHAR C253
ENCODING 171
SWIDTH 619 0
DWIDTH 12 0
BBX 12 20 0 -4
BITMAP
0000
0000
0000
0000
0000
0000
0000
0e70
1ce0
39c0
7380
39c0
1ce0
0e70
0000
0000
0000
0000
0000
0000
ENDCHAR
STARTCHAR C254
ENCODING 172
SWIDTH 619 0
DWIDTH 12 0
BBX 12 20 0 -4
BITMAP
0000
0000
0000
0000
0000
0000
0000
0000
3fc0
3fc0
00c0
00c0
00c0
00c0
0000
0000
0000
0000
0000
0000
ENDCHAR
STARTCHAR C255
ENCODING 173
SWIDTH 619 0
DWIDTH 12 0
BBX 12 20 0 -4
BITMAP
0000
0000
0000
0000
0000
0000
0000
0000
3fc0
3fc0
0000
0000
0000
0000
0000
0000
0000
0000
0000
0000
ENDCHAR
STARTCHAR C256
ENCODING 174
SWIDTH 619 0
DWIDTH 12 0
BBX 12 20 0 -4
BITMAP
0000
0000
0000
1fc0
3060
6f30
6db0
6db0
6f30
6db0
6db0
3060
1fc0
0000
0000
0000
0000
0000
0000
0000
ENDCHAR
STARTCHAR C257
ENCODING 175
SWIDTH 619 0
DWIDTH 12 0
BBX 12 20 0 -4
BITMAP
0000
fff0
fff0
0000
0000
0000
0000
0000
0000
0000
0000
0000
0000
0000
0000
0000
0000
0000
0000
0000
ENDCHAR
STARTCHAR C260
ENCODING 176
SWIDTH 619 0
DWIDTH 12 0
BBX 12 20 0 -4
BITMAP
0000
0000
1f00
3b80
3180
3180
3b80
1f00
0000
0000
0000
0000
0000
0000
0000
0000
0000
0000
0000
0000
ENDCHAR
STARTCHAR C261
ENCODING 177
SWIDTH 619 0
DWIDTH 12 0
BBX 12 20 0 -4
BITMAP
0000
0000
0000
0000
0600
0600
0600
3fc0
3fc0
0600
0600
0600
0000
3fc0
3fc0
0000
0000
0000
0000
0000
ENDCHAR
STARTCHAR C262
ENCODING 178
SWIDTH 619 0
DWIDTH 12 0
BBX 12 20 0 -4
BITMAP
0000
0f00
1f80
1980
0180
0380
0700
0e00
1f80
1f80
0000
0000
0000
0000
0000
0000
0000
0000
0000
0000
ENDCHAR
STARTCHAR C263
ENCODING 179
SWIDTH 619 0
DWIDTH 12 0
BBX 12 20 0 -4
BITMAP
0000
0f00
1f80
1980
0380
0700
0380
1980
1f80
0f00
0000
0000
0000
0000
0000
0000
0000
0000
0000
0000
ENDCHAR
STARTCHAR C264
ENCODING 180
SWIDTH 619 0
DWIDTH 12 0
BBX 12 20 0 -4
BITMAP
0000
0380
0700
0e00
0000
0000
0000
0000
0000
0000
0000
0000
0000
0000
0000
0000
0000
0000
0000
0000
ENDCHAR
STARTCHAR C265
ENCODING 181
SWIDTH 619 0
DWIDTH 12 0
BBX 12 20 0 -4
BITMAP
0000
0000
0000
0000
0000
0000
30c0
30c0
30c0
30c0
30c0
30c0
30c0
39c0
3fe0
3760
3000
3000
3000
0000
ENDCHAR
STARTCHAR C266
ENCODING 182
SWIDTH 619 0
DWIDTH 12 0
BBX 12 20 0 -4
BITMAP
0000
0000
0000
0000
1fe0
3fe0
3e60
3e60
3e60
3e60
1e60
0660
0660
0660
0660
0660
0000
0000
0000
0000
ENDCHAR
STARTCHAR C267
ENCODING 183
SWIDTH 619 0
DWIDTH 12 0
BBX 12 20 0 -4
BITMAP
0000
0000
0000
0000
0000
0000
0000
0000
0700
0700
0700
0000
0000
0000
0000
0000
0000
0000
0000
0000
ENDCHAR
STARTCHAR C270
ENCODING 184
SWIDTH 619 0
DWIDTH 12 0
BBX 12 20 0 -4
BITMAP
0000
0000
0000
0000
0000
0000
0000
0000
0000
0000
0000
0000
0000
0000
0000
0700
0180
1980
0f00
0000
ENDCHAR
STARTCHAR C271
ENCODING 185
SWIDTH 619 0
DWIDTH 12 0
BBX 12 20 0 -4
BITMAP
0000
0600
0e00
1e00
0600
0600
0600
0600
1f80
1f80
0000
0000
0000
0000
0000
0000
0000
0000
0000
0000
ENDCHAR
STARTCHAR C272
ENCODING 186
SWIDTH 619 0
DWIDTH 12 0
BBX 12 20 0 -4
BITMAP
0000
0f80
1fc0
18c0
18c0
18c0
18c0
1fc0
0f80
0000
1fc0
1fc0
0000
0000
0000
0000
0000
0000
0000
0000
ENDCHAR
STARTCHAR C273
ENCODING 187
SWIDTH 619 0
DWIDTH 12 0
BBX 12 20 0 -4
BITMAP
0000
0000
0000
0000
0000
0000
0000
7380
39c0
1ce0
0e70
1ce0
39c0
7380
0000
0000
0000
0000
0000
0000
ENDCHAR
STARTCHAR C274
ENCODING 188
SWIDTH 619 0
DWIDTH 12 0
BBX 12 20 0 -4
BITMAP
0000
0000
1800
3800
7820
1860
18e0
19c0
1b80
0700
0e00
1ce0
39e0
3360
2660
07e0
07e0
0060
0000
0000
ENDCHAR
STARTCHAR C275
ENCODING 189
SWIDTH 619 0
DWIDTH 12 0
BBX 12 20 0 -4
BITMAP
0000
0000
1800
3820
7860
18e0
19c0
1b80
0700
0e00
1c00
39c0
73e0
6260
40c0
0180
03e0
03e0
0000
0000
ENDCHAR
STARTCHAR C276
ENCODING 190
SWIDTH 619 0
DWIDTH 12 0
BBX 12 20 0 -4
BITMAP
0000
7800
7c00
0c00
3820
0c60
7ce0
79c0
0380
0700
0e60
1ce0
39e0
7360
6660
07e0
0060
0060
0000
0000
ENDCHAR
STARTCHAR C277
ENCODING 191
SWIDTH 619 0
DWIDTH 12 0
BBX 12 20 0 -4
BITMAP
0000
0000
0000
0000
0700
0700
0000
0700
0700
0e00
1c00
3800
3060
38e0
1fc0
0f80
0000
0000
0000
0000
ENDCHAR
STARTCHAR C300
ENCODING 192
SWIDTH 619 0
DWIDTH 12 0
BBX 12 20 0 -4
BITMAP
1c00
0e00
0700
0000
0700
0f80
1dc0
38e0
3060
3060
3fe0
3fe0
3060
3060
3060
3060
0000
0000
0000
0000
ENDCHAR
STARTCHAR C301
ENCODING 193
SWIDTH 619 0
DWIDTH 12 0
BBX 12 20 0 -4
BITMAP
01c0
0380
0700
0000
0700
0f80
1dc0
38e0
3060
3060
3fe0
3fe0
3060
3060
3060
3060
0000
0000
0000
0000
ENDCHAR
STARTCHAR C302
ENCODING 194
SWIDTH 619 0
DWIDTH 12 0
BBX 12 20 0 -4
BITMAP
0700
0f80
1dc0
0000
0700
0f80
1dc0
38e0
3060
3060
3fe0
3fe0
3060
3060
3060
3060
0000
0000
0000
0000
ENDCHAR
STARTCHAR C303
ENCODING 195
SWIDTH 619 0
DWIDTH 12 0
BBX 12 20 0 -4
BITMAP
0e30
1fe0
31c0
0000
0700
0f80
1dc0
38e0
3060
3060
3fe0
3fe0
3060
3060
3060
3060
0000
0000
0000
0000
ENDCHAR
STARTCHAR C304
ENCODING 196
SWIDTH 619 0
DWIDTH 12 0
BBX 12 20 0 -4
BITMAP
0000
38e0
38e0
0000
0700
0f80
1dc0
38e0
3060
3060
3fe0
3fe0
3060
3060
3060
3060
0000
0000
0000
0000
ENDCHAR
STARTCHAR C305
ENCODING 197
SWIDTH 619 0
DWIDTH 12 0
BBX 12 20 0 -4
BITMAP
0000
0f80
19c0
1cc0
0f80
0f80
1dc0
38e0
3060
3060
3fe0
3fe0
3060
3060
3060
3060
0000
0000
0000
0000
ENDCHAR
STARTCHAR C306
ENCODING 198
SWIDTH 619 0
DWIDTH 12 0
BBX 12 20 0 -4
BITMAP
0000
0000
0000
0000
0fe0
1fe0
3b00
7300
6300
63e0
7fe0
7f00
6300
6300
63e0
63e0
0000
0000
0000
0000
ENDCHAR
STARTCHAR C307
ENCODING 199
SWIDTH 619 0
DWIDTH 12 0
BBX 12 20 0 -4
BITMAP
0000
0000
0000
0000
0f80
1fc0
38e0
3000
3000
3000
3000
3000
3000
38e0
1fc0
0f80
0300
0980
0700
0000
ENDCHAR
STARTCHAR C310
ENCODING 200
SWIDTH 619 0
DWIDTH 12 0
BBX 12 20 0 -4
BITMAP
1c00
0e00
0700
0000
3fe0
3fe0
3000
3000
3000
3fc0
3fc0
3000
3000
3000
3fe0
3fe0
0000
0000
0000
0000
ENDCHAR
STARTCHAR C311
ENCODING 201
SWIDTH 619 0
DWIDTH 12 0
BBX 12 20 0 -4
BITMAP
01c0
0380
0700
0000
3fe0
3fe0
3000
3000
3000
3fc0
3fc0
3000
3000
3000
3fe0
3fe0
0000
0000
0000
0000
ENDCHAR
STARTCHAR C312
ENCODING 202
SWIDTH 619 0
DWIDTH 12 0
BBX 12 20 0 -4
BITMAP
0600
0f00
1980
0000
3fe0
3fe0
3000
3000
3000
3fc0
3fc0
3000
3000
3000
3fe0
3fe0
0000
0000
0000
0000
ENDCHAR
STARTCHAR C313
ENCODING 203
SWIDTH 619 0
DWIDTH 12 0
BBX 12 20 0 -4
BITMAP
0000
39c0
39c0
0000
3fe0
3fe0
3000
3000
3000
3fc0
3fc0
3000
3000
3000
3fe0
3fe0
0000
0000
0000
0000
ENDCHAR
STARTCHAR C314
ENCODING 204
SWIDTH 619 0
DWIDTH 12 0
BBX 12 20 0 -4
BITMAP
1c00
0e00
0700
0000
1f80
1f80
0600
0600
0600
0600
0600
0600
0600
0600
1f80
1f80
0000
0000
0000
0000
ENDCHAR
STARTCHAR C315
ENCODING 205
SWIDTH 619 0
DWIDTH 12 0
BBX 12 20 0 -4
BITMAP
0380
0700
0e00
0000
1f80
1f80
0600
0600
0600
0600
0600
0600
0600
0600
1f80
1f80
0000
0000
0000
0000
ENDCHAR
STARTCHAR C316
ENCODING 206
SWIDTH 619 0
DWIDTH 12 0
BBX 12 20 0 -4
BITMAP
0600
0f00
1980
0000
1f80
1f80
0600
0600
0600
0600
0600
0600
0600
0600
1f80
1f80
0000
0000
0000
0000
ENDCHAR
STARTCHAR C317
ENCODING 207
SWIDTH 619 0
DWIDTH 12 0
BBX 12 20 0 -4
BITMAP
0000
39c0
39c0
0000
1f80
1f80
0600
0600
0600
0600
0600
0600
0600
0600
1f80
1f80
0000
0000
0000
0000
ENDCHAR
STARTCHAR C320
ENCODING 208
SWIDTH 619 0
DWIDTH 12 0
BBX 12 20 0 -4
BITMAP
1040
1fc0
0f80
0000
0f80
1fc0
38e0
3000
3000
31e0
31e0
3060
3060
38e0
1fe0
0f60
0000
0000
0000
0000
ENDCHAR
STARTCHAR C321
ENCODING 209
SWIDTH 619 0
DWIDTH 12 0
BBX 12 20 0 -4
BITMAP
1c60
3fc0
6380
0000
3060
3860
3c60
3c60
3660
3760
3360
31e0
31e0
30e0
3060
3060
0000
0000
0000
0000
ENDCHAR
STARTCHAR C322
ENCODING 210
SWIDTH 619 0
DWIDTH 12 0
BBX 12 20 0 -4
BITMAP
1c00
0e00
0700
0000
0f80
1fc0
38e0
3060
3060
3060
3060
3060
3060
38e0
1fc0
0f80
0000
0000
0000
0000
ENDCHAR
STARTCHAR C323
ENCODING 211
SWIDTH 619 0
DWIDTH 12 0
BBX 12 20 0 -4
BITMAP
00e0
01c0
0380
0000
0f80
1fc0
38e0
3060
3060
3060
3060
3060
3060
38e0
1fc0
0f80
0000
0000
0000
0000
ENDCHAR
STARTCHAR C324
ENCODING 212
SWIDTH 619 0
DWIDTH 12 0
BBX 12 20 0 -4
BITMAP
0300
0780
0cc0
0000
0f80
1fc0
38e0
3060
3060
3060
3060
3060
3060
38e0
1fc0
0f80
0000
0000
0000
0000
ENDCHAR
STARTCHAR C325
ENCODING 213
SWIDTH 619 0
DWIDTH 12 0
BBX 12 20 0 -4
BITMAP
0e30
1fe0
31c0
0000
0f80
1fc0
38e0
3060
3060
3060
3060
3060
3060
38e0
1fc0
0f80
0000
0000
0000
0000
ENDCHAR
STARTCHAR C326
ENCODING 214
SWIDTH 619 0
DWIDTH 12 0
BBX 12 20 0 -4
BITMAP
0000
38e0
38e0
0000
0f80
1fc0
38e0
3060
3060
3060
3060
3060
3060
38e0
1fc0
0f80
0000
0000
0000
0000
ENDCHAR
STARTCHAR C327
ENCODING 215
SWIDTH 619 0
DWIDTH 12 0
BBX 12 20 0 -4
BITMAP
0000
0000
0000
0000
0000
0000
38e0
1dc0
0f80
0700
0700
0f80
1dc0
38e0
0000
0000
0000
0000
0000
0000
ENDCHAR
STARTCHAR C330
ENCODING 216
SWIDTH 619 0
DWIDTH 12 0
BBX 12 20 0 -4
BITMAP
0000
0000
0000
0000
0f80
1fc0
38e0
30e0
31e0
3360
3660
3c60
3860
38e0
1fc0
0f80
0000
0000
0000
0000
ENDCHAR
STARTCHAR C331
ENCODING 217
SWIDTH 619 0
DWIDTH 12 0
BBX 12 20 0 -4
BITMAP
1c00
0e00
0700
0000
3060
3060
3060
3060
3060
3060
3060
3060
3060
38e0
1fc0
0f80
0000
0000
0000
0000
ENDCHAR
STARTCHAR C332
ENCODING 218
SWIDTH 619 0
DWIDTH 12 0
BBX 12 20 0 -4
BITMAP
01c0
0380
0700
0000
3060
3060
3060
3060
3060
3060
3060
3060
3060
38e0
1fc0
0f80
0000
0000
0000
0000
ENDCHAR
STARTCHAR C333
ENCODING 219
SWIDTH 619 0
DWIDTH 12 0
BBX 12 20 0 -4
BITMAP
0300
0780
0cc0
0000
3060
3060
3060
3060
3060
3060
3060
3060
3060
38e0
1fc0
0f80
0000
0000
0000
0000
ENDCHAR
STARTCHAR C334
ENCODING 220
SWIDTH 619 0
DWIDTH 12 0
BBX 12 20 0 -4
BITMAP
0000
38e0
38e0
0000
3060
3060
3060
3060
3060
3060
3060
3060
3060
38e0
1fc0
0f80
0000
0000
0000
0000
ENDCHAR
STARTCHAR C335
ENCODING 221
SWIDTH 619 0
DWIDTH 12 0
BBX 12 20 0 -4
BITMAP
0000
0f00
0f00
0000
1f80
1f80
0600
0600
0600
0600
0600
0600
0600
0600
1f80
1f80
0000
0000
0000
0000
ENDCHAR
STARTCHAR C336
ENCODING 222
SWIDTH 619 0
DWIDTH 12 0
BBX 12 20 0 -4
BITMAP
0000
0000
0000
0000
0f80
1fc0
38e0
3000
3800
1f00
07c0
00e0
0060
38e0
1fc0
0f80
0300
0980
0700
0000
ENDCHAR
STARTCHAR C337
ENCODING 223
SWIDTH 619 0
DWIDTH 12 0
BBX 12 20 0 -4
BITMAP
0000
0000
0000
0000
0f00
1f80
39c0
30c0
3180
3380
33c0
30e0
3060
30e0
33c0
3380
3000
0000
0000
0000
ENDCHAR
STARTCHAR C340
ENCODING 224
SWIDTH 619 0
DWIDTH 12 0
BBX 12 20 0 -4
BITMAP
0000
1c00
0e00
0700
0000
0000
0f80
0fc0
0060
0fe0
1fe0
3860
3060
38e0
1fe0
0f60
0000
0000
0000
0000
ENDCHAR
STARTCHAR C341
ENCODING 225
SWIDTH 619 0
DWIDTH 12 0
BBX 12 20 0 -4
BITMAP
0000
01c0
0380
0700
0000
0000
0f80
0fc0
0060
0fe0
1fe0
3860
3060
38e0
1fe0
0f60
0000
0000
0000
0000
ENDCHAR
STARTCHAR C342
ENCODING 226
SWIDTH 619 0
DWIDTH 12 0
BBX 12 20 0 -4
BITMAP
0000
0700
0f80
1dc0
38e0
0000
0f80
0fc0
0060
0fe0
1fe0
3860
3060
38e0
1fe0
0f60
0000
0000
0000
0000
ENDCHAR
STARTCHAR C343
ENCODING 227
SWIDTH 619 0
DWIDTH 12 0
BBX 12 20 0 -4
BITMAP
0000
0e30
1fe0
31c0
0000
0000
0f80
0fc0
0060
0fe0
1fe0
3860
3060
38e0
1fe0
0f60
0000
0000
0000
0000
ENDCHAR
STARTCHAR C344
ENCODING 228
SWIDTH 619 0
DWIDTH 12 0
BBX 12 20 0 -4
BITMAP
0000
0000
1ce0
1ce0
0000
0000
0f80
0fc0
0060
0fe0
1fe0
3860
3060
38e0
1fe0
0f60
0000
0000
0000
0000
ENDCHAR
STARTCHAR C345
ENCODING 229
SWIDTH 619 0
DWIDTH 12 0
BBX 12 20 0 -4
BITMAP
0000
0f80
1cc0
19c0
0f80
0000
0f80
0fc0
0060
0fe0
1fe0
3860
3060
38e0
1fe0
0f60
0000
0000
0000
0000
ENDCHAR
STARTCHAR C346
ENCODING 230
SWIDTH 619 0
DWIDTH 12 0
BBX 12 20 0 -4
BITMAP
0000
0000
0000
0000
0000
0000
3dc0
7fe0
6660
0660
3fe0
7fc0
6600
6660
7fe0
3bc0
0000
0000
0000
0000
ENDCHAR
STARTCHAR C347
ENCODING 231
SWIDTH 619 0
DWIDTH 12 0
BBX 12 20 0 -4
BITMAP
0000
0000
0000
0000
0000
0f80
1fc0
38e0
3000
3000
3000
3000
3000
38e0
1fc0
0f80
0300
0980
0700
0000
ENDCHAR
STARTCHAR C350
ENCODING 232
SWIDTH 619 0
DWIDTH 12 0
BBX 12 20 0 -4
BITMAP
0000
0e00
0700
0380
0000
0000
0f80
1fc0
38e0
3060
3fe0
3fe0
3000
3800
1fe0
0fc0
0000
0000
0000
0000
ENDCHAR
STARTCHAR C351
ENCODING 233
SWIDTH 619 0
DWIDTH 12 0
BBX 12 20 0 -4
BITMAP
0000
0000
01c0
0380
0700
0000
0f80
1fc0
38e0
3060
3fe0
3fe0
3000
3800
1fe0
0fc0
0000
0000
0000
0000
ENDCHAR
STARTCHAR C352
ENCODING 234
SWIDTH 619 0
DWIDTH 12 0
BBX 12 20 0 -4
BITMAP
0000
0700
0f80
1dc0
38e0
0000
0f80
1fc0
38e0
3060
3fe0
3fe0
3000
3800
1fe0
0fc0
0000
0000
0000
0000
ENDCHAR
STARTCHAR C353
ENCODING 235
SWIDTH 619 0
DWIDTH 12 0
BBX 12 20 0 -4
BITMAP
0000
0000
38e0
38e0
0000
0000
0f80
1fc0
38e0
3060
3fe0
3fe0
3000
3800
1fe0
0fc0
0000
0000
0000
0000
ENDCHAR
STARTCHAR C354
ENCODING 236
SWIDTH 619 0
DWIDTH 12 0
BBX 12 20 0 -4
BITMAP
0000
0000
1c00
0e00
0700
0000
0f00
0f00
0300
0300
0300
0300
0300
0300
0fc0
0fc0
0000
0000
0000
0000
ENDCHAR
STARTCHAR C355
ENCODING 237
SWIDTH 619 0
DWIDTH 12 0
BBX 12 20 0 -4
BITMAP
0000
0000
01c0
0380
0700
0000
0f00
0f00
0300
0300
0300
0300
0300
0300
0fc0
0fc0
0000
0000
0000
0000
ENDCHAR
STARTCHAR C356
ENCODING 238
SWIDTH 619 0
DWIDTH 12 0
BBX 12 20 0 -4
BITMAP
0000
0700
0f80
1dc0
38e0
0000
0f00
0f00
0300
0300
0300
0300
0300
0300
0fc0
0fc0
0000
0000
0000
0000
ENDCHAR
STARTCHAR C357
ENCODING 239
SWIDTH 619 0
DWIDTH 12 0
BBX 12 20 0 -4
BITMAP
0000
0000
38e0
38e0
0000
0000
0f00
0f00
0300
0300
0300
0300
0300
0300
0fc0
0fc0
0000
0000
0000
0000
ENDCHAR
STARTCHAR C360
ENCODING 240
SWIDTH 619 0
DWIDTH 12 0
BBX 12 20 0 -4
BITMAP
0000
1040
1fc0
0f80
0000
0000
0f60
1fe0
38e0
3060
3060
3060
3060
38e0
1fe0
0f60
0060
1fc0
1f80
0000
ENDCHAR
STARTCHAR C361
ENCODING 241
SWIDTH 619 0
DWIDTH 12 0
BBX 12 20 0 -4
BITMAP
0000
1c60
3fc0
6380
0000
0000
3780
3fc0
38e0
3060
3060
3060
3060
3060
3060
3060
0000
0000
0000
0000
ENDCHAR
STARTCHAR C362
ENCODING 242
SWIDTH 619 0
DWIDTH 12 0
BBX 12 20 0 -4
BITMAP
0000
1c00
0e00
0700
0000
0000
0f80
1fc0
38e0
3060
3060
3060
3060
38e0
1fc0
0f80
0000
0000
0000
0000
ENDCHAR
STARTCHAR C363
ENCODING 243
SWIDTH 619 0
DWIDTH 12 0
BBX 12 20 0 -4
BITMAP
0000
01c0
0380
0700
0000
0000
0f80
1fc0
38e0
3060
3060
3060
3060
38e0
1fc0
0f80
0000
0000
0000
0000
ENDCHAR
STARTCHAR C364
ENCODING 244
SWIDTH 619 0
DWIDTH 12 0
BBX 12 20 0 -4
BITMAP
0000
0700
0f80
1dc0
38e0
0000
0f80
1fc0
38e0
3060
3060
3060
3060
38e0
1fc0
0f80
0000
0000
0000
0000
ENDCHAR
STARTCHAR C365
ENCODING 245
SWIDTH 619 0
DWIDTH 12 0
BBX 12 20 0 -4
BITMAP
0000
0e30
1fe0
31c0
0000
0000
0f80
1fc0
38e0
3060
3060
3060
3060
38e0
1fc0
0f80
0000
0000
0000
0000
ENDCHAR
STARTCHAR C366
ENCODING 246
SWIDTH 619 0
DWIDTH 12 0
BBX 12 20 0 -4
BITMAP
0000
0000
38e0
38e0
0000
0000
0f80
1fc0
38e0
3060
3060
3060
3060
38e0
1fc0
0f80
0000
0000
0000
0000
ENDCHAR
STARTCHAR C367
ENCODING 247
SWIDTH 619 0
DWIDTH 12 0
BBX 12 20 0 -4
BITMAP
0000
0000
0000
0000
0000
0000
0700
0700
0700
0000
3fe0
3fe0
0000
0700
0700
0700
0000
0000
0000
0000
ENDCHAR
STARTCHAR C370
ENCODING 248
SWIDTH 619 0
DWIDTH 12 0
BBX 12 20 0 -4
BITMAP
0000
0000
0000
0000
0000
0000
0f80
1fc0
38e0
31e0
3360
3660
3c60
38e0
1fc0
0f80
0000
0000
0000
0000
ENDCHAR
STARTCHAR C371
ENCODING 249
SWIDTH 619 0
DWIDTH 12 0
BBX 12 20 0 -4
BITMAP
0000
1c00
0e00
0700
0000
0000
3060
3060
3060
3060
3060
3060
3060
38e0
1fe0
0f60
0000
0000
0000
0000
ENDCHAR
STARTCHAR C372
ENCODING 250
SWIDTH 619 0
DWIDTH 12 0
BBX 12 20 0 -4
BITMAP
0000
01c0
0380
0700
0000
0000
3060
3060
3060
3060
3060
3060
3060
38e0
1fe0
0f60
0000
0000
0000
0000
ENDCHAR
STARTCHAR C373
ENCODING 251
SWIDTH 619 0
DWIDTH 12 0
BBX 12 20 0 -4
BITMAP
0000
0700
0f80
1dc0
38e0
0000
3060
3060
3060
3060
3060
3060
3060
38e0
1fe0
0f60
0000
0000
0000
0000
ENDCHAR
STARTCHAR C374
ENCODING 252
SWIDTH 619 0
DWIDTH 12 0
BBX 12 20 0 -4
BITMAP
0000
0000
38e0
38e0
0000
0000
3060
3060
3060
3060
3060
3060
3060
38e0
1fe0
0f60
0000
0000
0000
0000
ENDCHAR
STARTCHAR C375
ENCODING 253
SWIDTH 619 0
DWIDTH 12 0
BBX 12 20 0 -4
BITMAP
0000
0000
0000
0000
0000
0000
0f00
0f00
0300
0300
0300
0300
0300
0300
0fc0
0fc0
0000
0000
0000
0000
ENDCHAR
STARTCHAR C376
ENCODING 254
SWIDTH 619 0
DWIDTH 12 0
BBX 12 20 0 -4
BITMAP
0000
0000
0000
0000
0000
0000
1fc0
3fe0
3060
3000
3fc0
1fe0
0060
3060
3fe0
1fc0
0300
0980
0700
0000
ENDCHAR
STARTCHAR C377
ENCODING 255
SWIDTH 619 0
DWIDTH 12 0
BBX 12 20 0 -4
BITMAP
0000
0000
38e0
38e0
0000
0000
3060
3060
3060
3060
3060
3060
3060
38e0
1fe0
0f60
00e0
1fc0
1f80
0000
ENDCHAR
ENDFONT
